<svg width="0" height="0" class="hidden">
  <symbol aria-hidden="true" data-prefix="fas" data-icon="inbox" xmlns="http://www.w3.org/2000/svg" viewBox="0 0 576 512" id="address">
    <path fill="currentColor" d="M567.938 243.908L462.25 85.374A48.003 48.003 0 0 0 422.311 64H153.689a48 48 0 0 0-39.938 21.374L8.062 243.908A47.994 47.994 0 0 0 0 270.533V400c0 26.51 21.49 48 48 48h480c26.51 0 48-21.49 48-48V270.533a47.994 47.994 0 0 0-8.062-26.625zM162.252 128h251.497l85.333 128H376l-32 64H232l-32-64H76.918l85.334-128z"></path>
  </symbol>
  <symbol aria-hidden="true" data-prefix="fas" data-icon="chevron-down" xmlns="http://www.w3.org/2000/svg" viewBox="0 0 448 512" id="arrow-down">
    <path fill="currentColor" d="M207.029 381.476L12.686 187.132c-9.373-9.373-9.373-24.569 0-33.941l22.667-22.667c9.357-9.357 24.522-9.375 33.901-.04L224 284.505l154.745-154.021c9.379-9.335 24.544-9.317 33.901.04l22.667 22.667c9.373 9.373 9.373 24.569 0 33.941L240.971 381.476c-9.373 9.372-24.569 9.372-33.942 0z"></path>
  </symbol>
  <symbol aria-hidden="true" data-prefix="far" data-icon="clock" xmlns="http://www.w3.org/2000/svg" viewBox="0 0 512 512" id="clock">
    <path fill="currentColor" d="M256 8C119 8 8 119 8 256s111 248 248 248 248-111 248-248S393 8 256 8zm0 448c-110.5 0-200-89.5-200-200S145.5 56 256 56s200 89.5 200 200-89.5 200-200 200zm61.8-104.4l-84.9-61.7c-3.1-2.3-4.9-5.9-4.9-9.7V116c0-6.6 5.4-12 12-12h32c6.6 0 12 5.4 12 12v141.7l66.8 48.6c5.4 3.9 6.5 11.4 2.6 16.8L334.6 349c-3.9 5.3-11.4 6.5-16.8 2.6z"></path>
  </symbol>
  <symbol aria-hidden="true" data-prefix="fab" data-icon="facebook-f" xmlns="http://www.w3.org/2000/svg" viewBox="0 0 320 512" id="facebook">
    <path fill="currentColor" d="M279.14 288l14.22-92.66h-88.91v-60.13c0-25.35 12.42-50.06 52.24-50.06h40.42V6.26S260.43 0 225.36 0c-73.22 0-121.08 44.38-121.08 124.72v70.62H22.89V288h81.39v224h100.17V288z"></path>
  </symbol>
  <symbol aria-hidden="true" data-prefix="fas" data-icon="heart" xmlns="http://www.w3.org/2000/svg" viewBox="0 0 512 512" id="heart">
    <path fill="currentColor" d="M462.3 62.6C407.5 15.9 326 24.3 275.7 76.2L256 96.5l-19.7-20.3C186.1 24.3 104.5 15.9 49.7 62.6c-62.8 53.6-66.1 149.8-9.9 207.9l193.5 199.8c12.5 12.9 32.8 12.9 45.3 0l193.5-199.8c56.3-58.1 53-154.3-9.8-207.9z"></path>
  </symbol>
  <symbol aria-hidden="true" data-prefix="fab" data-icon="instagram" xmlns="http://www.w3.org/2000/svg" viewBox="0 0 448 512" id="instagram">
    <path fill="currentColor" d="M224.1 141c-63.6 0-114.9 51.3-114.9 114.9s51.3 114.9 114.9 114.9S339 319.5 339 255.9 287.7 141 224.1 141zm0 189.6c-41.1 0-74.7-33.5-74.7-74.7s33.5-74.7 74.7-74.7 74.7 33.5 74.7 74.7-33.6 74.7-74.7 74.7zm146.4-194.3c0 14.9-12 26.8-26.8 26.8-14.9 0-26.8-12-26.8-26.8s12-26.8 26.8-26.8 26.8 12 26.8 26.8zm76.1 27.2c-1.7-35.9-9.9-67.7-36.2-93.9-26.2-26.2-58-34.4-93.9-36.2-37-2.1-147.9-2.1-184.9 0-35.8 1.7-67.6 9.9-93.9 36.1s-34.4 58-36.2 93.9c-2.1 37-2.1 147.9 0 184.9 1.7 35.9 9.9 67.7 36.2 93.9s58 34.4 93.9 36.2c37 2.1 147.9 2.1 184.9 0 35.9-1.7 67.7-9.9 93.9-36.2 26.2-26.2 34.4-58 36.2-93.9 2.1-37 2.1-147.8 0-184.8zM398.8 388c-7.8 19.6-22.9 34.7-42.6 42.6-29.5 11.7-99.5 9-132.1 9s-102.7 2.6-132.1-9c-19.6-7.8-34.7-22.9-42.6-42.6-11.7-29.5-9-99.5-9-132.1s-2.6-102.7 9-132.1c7.8-19.6 22.9-34.7 42.6-42.6 29.5-11.7 99.5-9 132.1-9s102.7-2.6 132.1 9c19.6 7.8 34.7 22.9 42.6 42.6 11.7 29.5 9 99.5 9 132.1s2.7 102.7-9 132.1z"></path>
  </symbol>
  <symbol xmlns="http://www.w3.org/2000/svg" viewBox="0 0 241 54" id="logo">
    <path d="M22.919 48.4l28.619-.252-20.555-35.19-16.792 29.93-4.52.04L28.976 9.362l-3.229-5.527L0 48.6l17.439-.153L31.08 24.136l10.81 18.508-16.649.146zm44.757 5.589L36.367.225l.37-.219 31.31 53.763zm2.808-33.178v-.052a9.528 9.528 0 0 1 19.055-.052v.052a9.528 9.528 0 0 1-19.055.052zm14.051 0v-.052a4.672 4.672 0 0 0-4.549-4.912 4.582 4.582 0 0 0-4.473 4.859v.052a4.667 4.667 0 0 0 4.524 4.912 4.586 4.586 0 0 0 4.498-4.859zm10.089-9.147H99.2l7.278 9.615v-9.615h4.852v18.19h-4.3l-7.556-9.979v9.979h-4.852v-18.19zm26.691 4.418h-5.307v-4.418h15.517v4.418h-5.307v13.772h-4.9V16.081zm14.99-4.418h4.929v18.19h-4.929v-18.19zm10.086 9.147v-.052a9.216 9.216 0 0 1 9.325-9.459 8.589 8.589 0 0 1 7.506 3.794l-3.69 2.936a4.7 4.7 0 0 0-3.866-2.131c-2.476 0-4.22 2.157-4.22 4.807v.052c0 2.729 1.744 4.86 4.22 4.86a4.8 4.8 0 0 0 3.993-2.209l3.69 2.7a8.857 8.857 0 0 1-7.835 4.106 9.112 9.112 0 0 1-9.123-9.404zm21.586-9.147h14.229v4.288h-9.376v2.754h8.491v3.976h-8.491v2.885h9.5v4.288h-14.353V11.664zm19.388 0h4.9v13.773h8.567v4.418h-13.47V11.664zm18.1 0h4.9v13.773h8.568v4.418h-13.47V11.664zm16.481 9.147v-.052A9.528 9.528 0 0 1 241 20.707v.052a9.528 9.528 0 0 1-19.055.052zm14.051 0v-.052a4.672 4.672 0 0 0-4.549-4.912 4.582 4.582 0 0 0-4.473 4.859v.052a4.667 4.667 0 0 0 4.524 4.912A4.586 4.586 0 0 0 236 20.811zM51.424 25.482v-6.023l4.5 7.069h.1l4.524-7.121v10.447h4.877v-18.19h-5.181l-4.22 7.042-4.22-7.042h-5.181v5.574zm20.07 14.225h.678v6.061h-.678v-6.061zm5.875 0h.636l3.786 4.857v-4.857h.661v6.061h-.541L78.03 40.8v4.97h-.661v-6.063zm11.811.631h-2.018v-.631h4.722v.631h-2.018v5.429h-.686v-5.429zm7.414-.631h4.345v.623h-3.666v2.07h3.279v.623h-3.279v2.121h3.708v.624h-4.387v-6.061zm9.191 0h2.585a2.358 2.358 0 0 1 1.708.606 1.685 1.685 0 0 1 .463 1.194v.017a1.767 1.767 0 0 1-1.63 1.766l1.845 2.477h-.833l-1.742-2.355h-1.717v2.355h-.679v-6.06zm2.524 3.091a1.335 1.335 0 0 0 1.545-1.246v-.019a1.279 1.279 0 0 0-1.536-1.2h-1.854V42.8h1.845zm7.123-3.091h.636l3.786 4.857v-4.857h.661v6.061h-.541l-3.881-4.97v4.97h-.661v-6.061zm12.446-.044h.635l2.739 6.1h-.73l-.7-1.6h-3.271l-.713 1.6h-.695zm1.674 3.888l-1.365-3.092-1.374 3.092h2.739zm7.14-3.213h-2.018v-.631h4.726v.631h-2.018v5.429h-.686v-5.429zm7.475-.631h.677v6.061h-.677v-6.061zm5.609 3.047v-.017a3.066 3.066 0 1 1 6.13-.018v.018a3.066 3.066 0 1 1-6.13.017zm5.426 0v-.017a2.4 2.4 0 0 0-2.37-2.5 2.372 2.372 0 0 0-2.352 2.485v.018a2.4 2.4 0 0 0 2.37 2.5 2.372 2.372 0 0 0 2.35-2.486zm5.577-3.047h.636l3.786 4.857v-4.857h.661v6.061h-.541L161.44 40.8v4.97h-.661v-6.063zm12.446-.044h.636l2.738 6.1h-.729l-.7-1.6h-3.27l-.713 1.6h-.695zm1.675 3.888l-1.366-3.092-1.373 3.092h2.739zm6.324-3.844h.676v5.428h3.382v.633h-4.061v-6.061zm14.5 3.047v-.017a3.03 3.03 0 0 1 3.013-3.135 3.146 3.146 0 0 1 2.24.806l-.437.519a2.549 2.549 0 0 0-1.828-.692 2.359 2.359 0 0 0-2.285 2.485v.018a2.334 2.334 0 0 0 2.379 2.519 2.817 2.817 0 0 0 1.734-.606v-1.508h-1.828v-.614h2.48v2.415a3.621 3.621 0 0 1-2.413.926 2.959 2.959 0 0 1-3.054-3.116zm10.436-3.047h2.585a2.358 2.358 0 0 1 1.708.606 1.682 1.682 0 0 1 .464 1.194v.017a1.767 1.767 0 0 1-1.631 1.766l1.845 2.477h-.831l-1.742-2.355h-1.718v2.355h-.679v-6.06zm2.524 3.091a1.336 1.336 0 0 0 1.546-1.246v-.019a1.28 1.28 0 0 0-1.537-1.2h-1.853V42.8h1.845zm6.857-.044v-.017a3.065 3.065 0 1 1 6.129-.018v.018a3.065 3.065 0 1 1-6.128.017zm5.425 0v-.017a2.4 2.4 0 0 0-2.369-2.5 2.372 2.372 0 0 0-2.353 2.485v.018a2.4 2.4 0 0 0 2.37 2.5 2.372 2.372 0 0 0 2.353-2.486zm5.484.476v-3.523h.678v3.48a1.777 1.777 0 0 0 1.837 2.043 1.736 1.736 0 0 0 1.812-2v-3.523h.678v3.472a2.507 2.507 0 1 1-5.004.052zm10.05-3.523h2.25a1.961 1.961 0 0 1 2.25 1.922v.017a2.078 2.078 0 0 1-2.361 1.983h-1.459v2.139h-.68v-6.061zm2.164 3.3a1.429 1.429 0 0 0 1.648-1.334v-.018a1.362 1.362 0 0 0-1.614-1.316h-1.518V43h1.485z"></path>
  </symbol>
  <symbol aria-hidden="true" data-prefix="fas" data-icon="map-marker-alt" xmlns="http://www.w3.org/2000/svg" viewBox="0 0 384 512" id="marker">
    <path fill="currentColor" d="M172.268 501.67C26.97 291.031 0 269.413 0 192 0 85.961 85.961 0 192 0s192 85.961 192 192c0 77.413-26.97 99.031-172.268 309.67-9.535 13.774-29.93 13.773-39.464 0zM192 272c44.183 0 80-35.817 80-80s-35.817-80-80-80-80 35.817-80 80 35.817 80 80 80z"></path>
  </symbol>
  <symbol aria-hidden="true" data-prefix="fas" data-icon="phone-alt" xmlns="http://www.w3.org/2000/svg" viewBox="0 0 512 512" id="phone">
    <path fill="currentColor" d="M497.39 361.8l-112-48a24 24 0 0 0-28 6.9l-49.6 60.6A370.66 370.66 0 0 1 130.6 204.11l60.6-49.6a23.94 23.94 0 0 0 6.9-28l-48-112A24.16 24.16 0 0 0 122.6.61l-104 24A24 24 0 0 0 0 48c0 256.5 207.9 464 464 464a24 24 0 0 0 23.4-18.6l24-104a24.29 24.29 0 0 0-14.01-27.6z"></path>
  </symbol>
  <symbol xmlns="http://www.w3.org/2000/svg" viewBox="0 0 24 24" id="plus">
    <path d="M.5 11.5h23v1H.5v-1zm11-11h1v23h-1V.5z" fill="none" stroke="#fff" fill-rule="evenodd"></path>
  </symbol>
  <symbol aria-hidden="true" data-prefix="fab" data-icon="twitter" xmlns="http://www.w3.org/2000/svg" viewBox="0 0 512 512" id="twitter">
    <path fill="currentColor" d="M459.37 151.716c.325 4.548.325 9.097.325 13.645 0 138.72-105.583 298.558-298.558 298.558-59.452 0-114.68-17.219-161.137-47.106 8.447.974 16.568 1.299 25.34 1.299 49.055 0 94.213-16.568 130.274-44.832-46.132-.975-84.792-31.188-98.112-72.772 6.498.974 12.995 1.624 19.818 1.624 9.421 0 18.843-1.3 27.614-3.573-48.081-9.747-84.143-51.98-84.143-102.985v-1.299c13.969 7.797 30.214 12.67 47.431 13.319-28.264-18.843-46.781-51.005-46.781-87.391 0-19.492 5.197-37.36 14.294-52.954 51.655 63.675 129.3 105.258 216.365 109.807-1.624-7.797-2.599-15.918-2.599-24.04 0-57.828 46.782-104.934 104.934-104.934 30.213 0 57.502 12.67 76.67 33.137 23.715-4.548 46.456-13.32 66.599-25.34-7.798 24.366-24.366 44.833-46.132 57.827 21.117-2.273 41.584-8.122 60.426-16.243-14.292 20.791-32.161 39.308-52.628 54.253z"></path>
  </symbol>
</svg>